<svg viewBox="0 0 512 512"><defs>
  <linearGradient id="tube-bg" x1="0" y1="0" x2="0" y2="1"><stop offset="0" stop-color="#3a2f7a"/><stop offset="1" stop-color="#1a1540"/></linearGradient>
  <linearGradient id="tube-knap" x1="0" y1="0" x2="0" y2="1"><stop offset="0" stop-color="#ff5a6b"/><stop offset="1" stop-color="#e0233a"/></linearGradient>
</defs>
  <rect width="512" height="512" fill="url(#tube-bg)"/>
  <rect x="86" y="150" width="340" height="236" rx="68" fill="url(#tube-knap)"/>
  <path d="M220 206 L324 268 L220 330 Z" fill="#fff"/>
  <g fill="#ffd447">
    <path d="M404 82 l12 30 30 12 -30 12 -12 30 -12 -30 -30 -12 30 -12 z"/>
    <path d="M98 64 l7 18 18 7 -18 7 -7 18 -7 -18 -18 -7 18 -7 z" opacity=".8"/>
  </g>
  <g font-family="-apple-system,Segoe UI,Roboto,sans-serif" font-weight="800" text-anchor="middle">
    <rect x="156" y="410" width="200" height="54" rx="27" fill="#ffffff22"/>
    <text x="256" y="448" font-size="30" fill="#fff" letter-spacing="2">ABONNÉR</text>
  </g>
</svg>
