<svg viewBox="0 0 512 512"><defs>
  <linearGradient id="o-bg" x1="0" y1="0" x2="0" y2="1"><stop offset="0" stop-color="#232a63"/><stop offset="1" stop-color="#0d1024"/></linearGradient>
  <linearGradient id="o-green" x1="0" y1="0" x2="0" y2="1"><stop offset="0" stop-color="#3ddc97"/><stop offset="1" stop-color="#23b57c"/></linearGradient>
  <linearGradient id="o-gold" x1="0" y1="0" x2="0" y2="1"><stop offset="0" stop-color="#ffce4f"/><stop offset="1" stop-color="#eba828"/></linearGradient>
</defs>
  <rect width="512" height="512" fill="url(#o-bg)"/>
  <g opacity=".14" fill="#fff"><rect x="76" y="96" width="80" height="80" rx="18"/><rect x="176" y="96" width="80" height="80" rx="18"/><rect x="276" y="96" width="80" height="80" rx="18"/><rect x="376" y="96" width="60" height="80" rx="18"/><rect x="76" y="336" width="80" height="80" rx="18"/><rect x="176" y="336" width="80" height="80" rx="18"/><rect x="276" y="336" width="80" height="80" rx="18"/><rect x="376" y="336" width="60" height="80" rx="18"/></g>
  <rect x="60" y="212" width="88" height="88" rx="20" fill="url(#o-green)"/><rect x="164" y="212" width="88" height="88" rx="20" fill="url(#o-gold)"/><rect x="268" y="212" width="88" height="88" rx="20" fill="#fff" opacity=".92"/><rect x="372" y="212" width="80" height="88" rx="20" fill="#fff" opacity=".18"/>
  <g font-family="Helvetica Neue,Helvetica,Arial,sans-serif" font-size="62" font-weight="700" text-anchor="middle" dominant-baseline="central"><text x="104" y="257" fill="#04231a">O</text><text x="208" y="257" fill="#3a2a00">R</text><text x="312" y="257" fill="#1b2044">D</text><text x="412" y="257" fill="#fff" opacity=".55">Å</text></g>
</svg>
