<svg viewBox="0 0 512 512"><defs>
  <linearGradient id="so-himmel" x1="0" y1="0" x2="0" y2="1"><stop offset="0" stop-color="#2a4a8f"/><stop offset=".6" stop-color="#4f86d6"/><stop offset="1" stop-color="#7fb4e8"/></linearGradient>
  <linearGradient id="so-lava" x1="0" y1="0" x2="0" y2="1"><stop offset="0" stop-color="#ffb03a"/><stop offset=".3" stop-color="#ff5c3a"/><stop offset="1" stop-color="#a01818"/></linearGradient>
</defs>
  <rect width="512" height="512" fill="url(#so-himmel)"/>
  <g fill="#fff" opacity=".16">
    <ellipse cx="108" cy="92" rx="62" ry="22"/><ellipse cx="142" cy="76" rx="42" ry="18"/>
    <ellipse cx="386" cy="148" rx="54" ry="19"/><ellipse cx="414" cy="134" rx="36" ry="15"/>
  </g>

  <!-- Plade med checkpoint-flag -->
  <g><rect x="24" y="300" width="132" height="34" rx="8" fill="#2e8f66"/><rect x="24" y="300" width="132" height="14" rx="7" fill="#5ee0a8"/>
     <rect x="34" y="216" width="8" height="84" fill="#e8eefc"/>
     <path d="M42 216h58l-16 22 16 22H42z" fill="#8bd0ff"/></g>

  <!-- Plade med pigge -->
  <g><rect x="186" y="342" width="136" height="34" rx="8" fill="#2e8f66"/><rect x="186" y="342" width="136" height="14" rx="7" fill="#5ee0a8"/>
     <g fill="#ff5c3a"><path d="M226 342l16-30 16 30z"/><path d="M258 342l16-30 16 30z"/></g></g>

  <!-- Plade med mål-flag -->
  <g><rect x="348" y="258" width="140" height="34" rx="8" fill="#b98a11"/><rect x="348" y="258" width="140" height="14" rx="7" fill="#ffd447"/>
     <rect x="410" y="168" width="8" height="90" fill="#e8eefc"/>
     <path d="M418 168h62l-18 24 18 24h-62z" fill="#ffd447"/></g>

  <!-- Klodsmanden midt i et hop -->
  <g transform="translate(146 170)">
    <rect x="10" y="92" width="22" height="34" rx="4" fill="#2e5fd0" transform="rotate(-12 21 109)"/>
    <rect x="42" y="92" width="22" height="34" rx="4" fill="#2e5fd0" transform="rotate(14 53 109)"/>
    <rect x="12" y="44" width="50" height="50" rx="8" fill="#3ec98d"/>
    <rect x="-8" y="30" width="20" height="44" rx="7" fill="#ffd447" transform="rotate(-38 2 52)"/>
    <rect x="62" y="30" width="20" height="44" rx="7" fill="#ffd447" transform="rotate(38 72 52)"/>
    <rect x="12" y="2" width="50" height="40" rx="8" fill="#ffd447"/>
    <rect x="26" y="16" width="9" height="9" fill="#1b2a58"/><rect x="44" y="16" width="9" height="9" fill="#1b2a58"/>
  </g>

  <path d="M0 424c60-16 104 10 168-4s110-20 172-4 116 2 172-14v110H0z" fill="url(#so-lava)"/>
  <g fill="#ffe88c" opacity=".6"><circle cx="86" cy="474" r="9"/><circle cx="262" cy="486" r="7"/><circle cx="416" cy="466" r="8"/></g>
</svg>
